<svg width="35" height="35" viewBox="0 0 35 35" fill="none" xmlns="http://www.w3.org/2000/svg">
<path d="M29.668 25.0196H27.2651C27.1011 25.0196 26.9473 25.0914 26.8447 25.2178C26.6055 25.5084 26.3491 25.7886 26.0791 26.0552C24.9747 27.1607 23.6666 28.0417 22.227 28.6495C20.7356 29.2794 19.1327 29.6025 17.5137 29.5997C15.8765 29.5997 14.2905 29.2784 12.8003 28.6495C11.3607 28.0417 10.0526 27.1607 8.94824 26.0552C7.8419 24.9535 6.95972 23.6476 6.35058 22.21C5.71826 20.7198 5.40039 19.1373 5.40039 17.5001C5.40039 15.8628 5.72168 14.2803 6.35058 12.7901C6.95898 11.3511 7.83398 10.0557 8.94824 8.94488C10.0625 7.83404 11.3579 6.95904 12.8003 6.35064C14.2905 5.72173 15.8765 5.40044 17.5137 5.40044C19.1509 5.40044 20.7368 5.71831 22.227 6.35064C23.6694 6.95904 24.9648 7.83404 26.0791 8.94488C26.3491 9.2149 26.602 9.49517 26.8447 9.78228C26.9473 9.90874 27.1045 9.98052 27.2651 9.98052H29.668C29.8833 9.98052 30.0166 9.74126 29.897 9.56011C27.2754 5.48589 22.6885 2.78911 17.4761 2.80279C9.28662 2.82329 2.7207 9.47124 2.80273 17.6504C2.88476 25.6998 9.44043 32.1973 17.5137 32.1973C22.7124 32.1973 27.2788 29.504 29.897 25.44C30.0132 25.2588 29.8833 25.0196 29.668 25.0196ZM32.7065 17.2847L27.8564 13.4566C27.6753 13.313 27.4121 13.4429 27.4121 13.6719V16.2696H16.6797C16.5293 16.2696 16.4062 16.3926 16.4062 16.543V18.4571C16.4062 18.6075 16.5293 18.7305 16.6797 18.7305H27.4121V21.3282C27.4121 21.5572 27.6787 21.6871 27.8564 21.5435L32.7065 17.7154C32.7392 17.6898 32.7657 17.6571 32.7838 17.6198C32.802 17.5825 32.8115 17.5416 32.8115 17.5001C32.8115 17.4585 32.802 17.4176 32.7838 17.3803C32.7657 17.343 32.7392 17.3103 32.7065 17.2847Z" fill="white"/>
</svg>
