<svg width="48" height="45" viewBox="0 0 48 45" fill="none" xmlns="http://www.w3.org/2000/svg">
<path d="M41.625 7.03125V14.0625C41.625 14.3422 41.5065 14.6105 41.2955 14.8083C41.0845 15.0061 40.7984 15.1172 40.5 15.1172C40.2016 15.1172 39.9155 15.0061 39.7045 14.8083C39.4935 14.6105 39.375 14.3422 39.375 14.0625V8.08594H33C32.7016 8.08594 32.4155 7.97482 32.2045 7.77703C31.9935 7.57923 31.875 7.31097 31.875 7.03125C31.875 6.75153 31.9935 6.48327 32.2045 6.28547C32.4155 6.08768 32.7016 5.97656 33 5.97656H40.5C40.7984 5.97656 41.0845 6.08768 41.2955 6.28547C41.5065 6.48327 41.625 6.75153 41.625 7.03125ZM15 36.9141H8.625V30.9375C8.625 30.6578 8.50647 30.3895 8.2955 30.1917C8.08452 29.9939 7.79837 29.8828 7.5 29.8828C7.20163 29.8828 6.91548 29.9939 6.7045 30.1917C6.49353 30.3895 6.375 30.6578 6.375 30.9375V37.9688C6.375 38.2485 6.49353 38.5167 6.7045 38.7145C6.91548 38.9123 7.20163 39.0234 7.5 39.0234H15C15.2984 39.0234 15.5845 38.9123 15.7955 38.7145C16.0065 38.5167 16.125 38.2485 16.125 37.9688C16.125 37.689 16.0065 37.4208 15.7955 37.223C15.5845 37.0252 15.2984 36.9141 15 36.9141ZM40.5 29.8828C40.2016 29.8828 39.9155 29.9939 39.7045 30.1917C39.4935 30.3895 39.375 30.6578 39.375 30.9375V36.9141H33C32.7016 36.9141 32.4155 37.0252 32.2045 37.223C31.9935 37.4208 31.875 37.689 31.875 37.9688C31.875 38.2485 31.9935 38.5167 32.2045 38.7145C32.4155 38.9123 32.7016 39.0234 33 39.0234H40.5C40.7984 39.0234 41.0845 38.9123 41.2955 38.7145C41.5065 38.5167 41.625 38.2485 41.625 37.9688V30.9375C41.625 30.6578 41.5065 30.3895 41.2955 30.1917C41.0845 29.9939 40.7984 29.8828 40.5 29.8828ZM7.5 15.1172C7.79837 15.1172 8.08452 15.0061 8.2955 14.8083C8.50647 14.6105 8.625 14.3422 8.625 14.0625V8.08594H15C15.2984 8.08594 15.5845 7.97482 15.7955 7.77703C16.0065 7.57923 16.125 7.31097 16.125 7.03125C16.125 6.75153 16.0065 6.48327 15.7955 6.28547C15.5845 6.08768 15.2984 5.97656 15 5.97656H7.5C7.20163 5.97656 6.91548 6.08768 6.7045 6.28547C6.49353 6.48327 6.375 6.75153 6.375 7.03125V14.0625C6.375 14.3422 6.49353 14.6105 6.7045 14.8083C6.91548 15.0061 7.20163 15.1172 7.5 15.1172ZM31.5 31.9922H16.5C15.8038 31.9922 15.1361 31.7329 14.6438 31.2714C14.1516 30.8099 13.875 30.1839 13.875 29.5312V15.4688C13.875 14.8161 14.1516 14.1901 14.6438 13.7286C15.1361 13.2671 15.8038 13.0078 16.5 13.0078H31.5C32.1962 13.0078 32.8639 13.2671 33.3562 13.7286C33.8484 14.1901 34.125 14.8161 34.125 15.4688V29.5312C34.125 30.1839 33.8484 30.8099 33.3562 31.2714C32.8639 31.7329 32.1962 31.9922 31.5 31.9922ZM31.875 15.4688C31.875 15.3755 31.8355 15.2861 31.7652 15.2202C31.6948 15.1542 31.5995 15.1172 31.5 15.1172H16.5C16.4005 15.1172 16.3052 15.1542 16.2348 15.2202C16.1645 15.2861 16.125 15.3755 16.125 15.4688V29.5312C16.125 29.6245 16.1645 29.7139 16.2348 29.7798C16.3052 29.8458 16.4005 29.8828 16.5 29.8828H31.5C31.5995 29.8828 31.6948 29.8458 31.7652 29.7798C31.8355 29.7139 31.875 29.6245 31.875 29.5312V15.4688Z" fill="white"/>
</svg>
